<svg xmlns="http://www.w3.org/2000/svg" xmlns:xlink="http://www.w3.org/1999/xlink" viewBox="0,0,256,256" width="50px" height="50px"><g fill="#ffffff" fill-rule="nonzero" stroke="none" stroke-width="1" stroke-linecap="butt" stroke-linejoin="miter" stroke-miterlimit="10" stroke-dasharray="" stroke-dashoffset="0" font-family="none" font-weight="none" font-size="none" text-anchor="none" style="mix-blend-mode: normal"><g transform="scale(5.12,5.12)"><path d="M21.658,43h-14.658v-6h14.658c2.996,0 5.434,-2.012 5.434,-4.485c0,-2.474 -2.438,-4.486 -5.434,-4.486l-6.162,-0.058c-6.276,0 -11.406,-4.704 -11.406,-10.486c0,-5.782 5.13,-10.485 11.434,-10.485h13.476v6h-13.476c-2.997,0 -5.434,2.012 -5.434,4.485c0,2.474 2.438,4.486 5.434,4.486l6.162,0.058c6.276,0 11.405,4.704 11.405,10.486c0,5.782 -5.128,10.485 -11.433,10.485zM44,7h-3l-3,4l-3,-4h-3l4.5,6l-4.5,6h3l3,-4l3,4h3l-4.5,-6z"></path></g></g></svg>